<svg id="Grupo_61911" data-name="Grupo 61911" xmlns="http://www.w3.org/2000/svg" width="46.761" height="80" viewBox="0 0 46.761 80">
  <g id="Grupo_61910" data-name="Grupo 61910" transform="translate(0)">
    <path id="Trazado_116969" data-name="Trazado 116969" d="M484.6,203.854l-2.295-78.012a.994.994,0,0,0-.994-.965h-40.2a.994.994,0,0,0-.994.965l-2.28,78.012a.994.994,0,0,0,.964,1.023h12.089a.994.994,0,0,0,.972-.789l9.362-44.984,9.362,44.984a.994.994,0,0,0,.972.789h12.045a.994.994,0,0,0,.994-.994C484.6,203.874,484.6,203.864,484.6,203.854Zm-3.713-58.8c-2.375-.965-3.559-7.893-3.72-13.389h3.325Zm-6.826-18.184h6.285l.088,2.836h-6.373Zm-11.84,0h9.859v2.814l-8.6.022h-1.257v-2.836Zm.263,4.824v13.338a3.516,3.516,0,0,1-2.514-3.362V131.7Zm-12.512-4.824H460.2v2.814l-1.228.022h-9Zm-7.864,0h5.876v2.814h-5.964Zm-.146,4.8h3.325c-.161,5.5-1.345,12.425-3.72,13.389Zm30.411,71.208L462.2,154.024a.994.994,0,0,0-1.944,0l-10.174,48.858H439.85l1.644-55.757c4.911-.731,5.664-11.482,5.766-15.458h10.722v10.005a5.5,5.5,0,0,0,5.5,5.5.994.994,0,0,0,.994-.994V131.667h10.7c.11,3.976.862,14.763,5.788,15.458l1.622,55.757Z" transform="translate(-437.84 -124.877)" fill="#bf3976"/>
  </g>
</svg>
