<svg id="Grupo_61734" data-name="Grupo 61734" xmlns="http://www.w3.org/2000/svg" width="77.125" height="77.114" viewBox="0 0 77.125 77.114">
  <path id="Trazado_116864" data-name="Trazado 116864" d="M-490.846,33.06-498.167,11.1a7.8,7.8,0,0,0-4.68-4.857C-520.126-.239-519.2.106-519.3.079-519.541.021-538.913.03-539.1.065c-.153.029.9-.358-16.516,6.174a7.8,7.8,0,0,0-4.68,4.857c-8,24.01-7.5,22.252-7.5,23.045a3.435,3.435,0,0,0,3.157,3.409l12.508.962V72.341a1.2,1.2,0,0,0,.782,1.128c12.628,4.736,30.677,5.081,44.225,0a1.2,1.2,0,0,0,.782-1.128V38.513l12.507-.962A3.428,3.428,0,0,0-490.846,33.06Zm-38.383-20.967a10.861,10.861,0,0,0,10.712-9.155l2.292.86a13.263,13.263,0,0,1-13,10.706,13.263,13.263,0,0,1-13-10.706l2.292-.86a10.861,10.861,0,0,0,10.712,9.156Zm-8.347-9.64h16.695a8.447,8.447,0,0,1-8.347,7.23A8.447,8.447,0,0,1-537.577,2.453Zm43.564,32.695-12.323.948V27.757a1.205,1.205,0,0,0-1.2-1.2,1.205,1.205,0,0,0-1.205,1.2V71.5c-12.1,4.264-28.467,4.406-40.969,0V27.757a1.205,1.205,0,0,0-1.2-1.2,1.2,1.2,0,0,0-1.2,1.2V36.1l-12.323-.948a1.014,1.014,0,0,1-.932-1.006c0-.255-.45,1.186,7.373-22.283a5.4,5.4,0,0,1,3.24-3.362l10.245-3.842A15.68,15.68,0,0,0-529.23,16.913,15.68,15.68,0,0,0-513.939,4.654L-503.694,8.5a5.4,5.4,0,0,1,3.24,3.362c7.841,23.523,7.373,22.039,7.373,22.283a1.014,1.014,0,0,1-.932,1.006Z" transform="translate(567.795 -0.037)" fill="#fff"/>
</svg>
