<svg xmlns="http://www.w3.org/2000/svg" width="82.382" height="82" viewBox="0 0 82.382 82">
  <path id="Trazado_116975" data-name="Trazado 116975" d="M272.892,119.014a51.289,51.289,0,0,0,18.185,4.834,48.26,48.26,0,0,1,1.2,11.089c0,7.993-1.383,14.321-4.779,27.9a1.609,1.609,0,0,0,.964,1.884,65.3,65.3,0,0,0,17.332,4.27,1.609,1.609,0,1,0,.341-3.2,62.315,62.315,0,0,1-15.17-3.552c3.214-12.918,4.531-19.234,4.531-27.306,0-10.2-2.071-15.271-9.292-40.457l10.9-3.634v.181a8.86,8.86,0,0,0,8.85,8.85,5.638,5.638,0,0,1,5.632,5.632v12.068a1.609,1.609,0,1,0,3.218,0V105.508a5.638,5.638,0,0,1,5.632-5.632,8.859,8.859,0,0,0,8.849-8.85v-.181l10.9,3.634c-7.5,26.174-9.292,30.37-9.292,40.457,0,8.07,1.317,14.387,4.531,27.306a62.312,62.312,0,0,1-15.17,3.552,1.609,1.609,0,0,0,.341,3.2,65.3,65.3,0,0,0,17.332-4.27,1.609,1.609,0,0,0,.963-1.884c-3.4-13.585-4.779-19.913-4.779-27.9a46.421,46.421,0,0,1,1.19-11.088,51.28,51.28,0,0,0,18.194-4.834,1.609,1.609,0,0,0,.753-2.087L343.628,92.792a1.63,1.63,0,0,0-.964-.878l-14.481-4.827a1.708,1.708,0,0,0-.509-.083H298.712a1.705,1.705,0,0,0-.509.083l-14.481,4.827a1.616,1.616,0,0,0-.964.878l-10.62,24.135a1.609,1.609,0,0,0,.753,2.087Zm63.2,1.528c1.273-4.95,3.295-11.674,6.379-22.382l8.2,18.627a49.716,49.716,0,0,1-14.574,3.754ZM320.434,96.658a8.843,8.843,0,0,0-7.241,3.771,8.843,8.843,0,0,0-7.241-3.771,5.638,5.638,0,0,1-5.631-5.632v-.8h25.744v.8A5.638,5.638,0,0,1,320.434,96.658Zm-36.522,1.5c3.057,10.6,5.089,17.313,6.379,22.383a49.737,49.737,0,0,1-14.576-3.754Z" transform="translate(-272.002 -87.004)" fill="#bf3976"/>
</svg>
