<svg xmlns="http://www.w3.org/2000/svg" width="98.273" height="74.751" viewBox="0 0 98.273 74.751">
  <path id="Trazado_117112" data-name="Trazado 117112" d="M-599.3,69.339V56.187h-52.755V69.793l-22.657,51.095,1.151.982c.434.37,11.048,9.068,47.984,9.068s47.553-8.7,47.987-9.068l1.151-.982Zm-48.7-9.094h44.639v7.542h-44.639V60.245Zm58.418,62.574c-11.429,3.357-25.885,4.062-36,4.062s-24.569-.7-36-4.062a38.432,38.432,0,0,1-8.117-3.244l21.165-47.729h9.345l-4.709,20.907,3.959.892,4.909-21.8h18.687l4.909,21.8,3.959-.892-4.709-20.907h9.547l21.167,47.729A38.452,38.452,0,0,1-589.575,122.819Z" transform="translate(674.709 -56.187)" fill="#bf3976"/>
</svg>
