<svg xmlns="http://www.w3.org/2000/svg" width="97.398" height="77.916" viewBox="0 0 97.398 77.916">
  <g id="Grupo_62255" data-name="Grupo 62255" transform="translate(-658 195)">
    <g id="Grupo_62213" data-name="Grupo 62213" transform="translate(658 -195)">
      <path id="Trazado_117111" data-name="Trazado 117111" d="M97.356,107.7a1.626,1.626,0,0,0-.142-.385L76.294,67.089v-13.4c0-5.128-19.3-5.681-27.6-5.681s-27.6.554-27.6,5.681v13.4L.183,107.32a1.623,1.623,0,0,0,1.076,2.331l14.851,3.427-1.415,4.22a1.623,1.623,0,0,0,1.4,2.133l18.383,1.532-.381,3.149a1.623,1.623,0,0,0,1.612,1.812H61.684a1.623,1.623,0,0,0,1.612-1.818l-.381-3.149L81.3,119.431a1.623,1.623,0,0,0,1.4-2.133l-1.415-4.22,14.851-3.427A1.623,1.623,0,0,0,97.356,107.7ZM48.7,51.254c13.015,0,20.891,1.386,23.574,2.435C69.59,54.738,61.714,56.124,48.7,56.124s-20.891-1.386-23.574-2.435C27.807,52.641,35.683,51.254,48.7,51.254Zm24.349,5.524v9.433c-1.076.255-2.164.45-3.246.67V57.728A22.608,22.608,0,0,0,73.047,56.778Zm-48.7,0c5.857,2.289,18.161,2.6,24.349,2.6a133.182,133.182,0,0,0,17.856-1.052v9.2a105.867,105.867,0,0,1-42.2-1.312ZM4.03,106.958l19.555-37.6q3.355.8,6.749,1.375L17.149,109.985Zm30.842,10.775-16.44-1.372L33.591,71.235q3.4.476,6.818.735Zm2.672,4.944,6.123-50.51c1.678.076,3.357.128,5.032.128s3.358-.052,5.032-.128l6.123,50.51Zm24.982-4.944L56.977,71.969q3.422-.26,6.818-.735l15.159,45.126Zm17.723-7.748L67.062,70.733q3.394-.579,6.749-1.375l19.555,37.6Z" transform="translate(0 -48.008)" fill="#bf3976"/>
    </g>
  </g>
</svg>
