<svg id="Outline" xmlns="http://www.w3.org/2000/svg" width="72.305" height="72.305" viewBox="0 0 72.305 72.305">
  <path id="Trazado_116865" data-name="Trazado 116865" d="M88.107,84.381l-5.87-52.833a3.621,3.621,0,0,0-2.169-2.924l-7.144-3.062c-.017-.007-.035-.012-.052-.019v0l-9.143-3.428-2.213-5.531a1.186,1.186,0,0,0-1.119-.756v0H43.526v0a1.186,1.186,0,0,0-1.119.756L40,22.607a1.205,1.205,0,0,0,.018.937l4.82,10.846a1.2,1.2,0,0,0,1.854.452l4.067-3.254V75.882l-3.271,9.813A15.7,15.7,0,0,1,35.67,79.258L32.68,66.3V27.5l5.645-2.117-.846-2.257-6.427,2.41c-.039.016-.077.034-.114.053v0l-6.512,3.256a3.639,3.639,0,0,0-1.617,1.617L16.191,43.7a3.636,3.636,0,0,0-.382,1.617V64.663a3.635,3.635,0,0,0,.382,1.617L26.782,87.463a1.2,1.2,0,0,0,1.746.464l7.23-4.82c.017-.011.032-.026.048-.038a18.108,18.108,0,0,0,12.539,5.061,1.2,1.2,0,0,0,1.143-.824l2.472-7.416,2.472,7.416a1.205,1.205,0,0,0,1.143.824A18.074,18.074,0,0,0,73.653,70.057V69.7L77.294,87.17a1.205,1.205,0,0,0,1.426.934c.029-.006.057-.013.085-.021l8.436-2.41a1.2,1.2,0,0,0,.867-1.292Zm-59.78.783L18.346,65.2a1.209,1.209,0,0,1-.127-.539V45.315a1.213,1.213,0,0,1,.127-.539l6.617-13.234A1.215,1.215,0,0,1,25.5,31L30.27,28.62v29.8l-2.463-8.007-2.3.709,4.808,15.626,2.041,8.842L27.24,78.66l1.24,2.067,4.441-2.665.808,3.5ZM61.5,23.03,57.52,31.983,53.6,28.845l6.509-9.3Zm-9.538,3.949-1.9-2.719h3.807Zm3.59-5.129H48.371L45.84,18.234H58.083ZM46.4,31.984,42.424,23.03l1.393-3.484,6.509,9.3Zm24.84,38.069A15.665,15.665,0,0,1,56.438,85.7l-3.271-9.813V31.588l4.067,3.254a1.205,1.205,0,0,0,1.854-.452l4.359-9.808,7.8,2.924Zm8.146,15.356L73.653,57.878V28.5l5.465,2.342a1.206,1.206,0,0,1,.723.975l5.2,46.8-4.45,1.113.584,2.338,4.134-1.034.289,2.6Z" transform="translate(-15.809 -15.824)" fill="#bf3976"/>
  <path id="Trazado_116866" data-name="Trazado 116866" d="M298.655,191.824h-9.641a1.205,1.205,0,0,0-1.205,1.205v8.436a1.205,1.205,0,0,0,.666,1.078l4.82,2.41a1.2,1.2,0,0,0,1.078,0l4.82-2.41a1.205,1.205,0,0,0,.666-1.078v-8.436A1.205,1.205,0,0,0,298.655,191.824Zm-1.205,8.9-3.615,1.808-3.615-1.808v-6.486h7.23Z" transform="translate(-246.836 -165.312)" fill="#bf3976"/>
  <path id="Trazado_116867" data-name="Trazado 116867" d="M215.809,159.824h2.41v2.41h-2.41Z" transform="translate(-185.682 -138.133)" fill="#bf3976"/>
  <path id="Trazado_116868" data-name="Trazado 116868" d="M215.809,239.824h2.41v2.41h-2.41Z" transform="translate(-185.682 -206.082)" fill="#bf3976"/>
  <path id="Trazado_116869" data-name="Trazado 116869" d="M215.809,319.824h2.41v2.41h-2.41Z" transform="translate(-185.682 -274.031)" fill="#bf3976"/>
  <path id="Trazado_116870" data-name="Trazado 116870" d="M215.809,399.824h2.41v2.41h-2.41Z" transform="translate(-185.682 -341.98)" fill="#bf3976"/>
</svg>
