<svg xmlns="http://www.w3.org/2000/svg" width="46.467" height="82" viewBox="0 0 46.467 82">
  <path id="Trazado_116972" data-name="Trazado 116972" d="M13.468,103.371c.023-2.176-2.147-9.278-2.733-11.157V78.757A1.367,1.367,0,0,0,9.368,77.39H3.9a1.367,1.367,0,0,0-1.367,1.367v8.2a12.3,12.3,0,0,1-12.3,12.3,12.3,12.3,0,0,1-12.3-12.3v-8.2a1.367,1.367,0,0,0-1.367-1.367H-28.9a1.367,1.367,0,0,0-1.367,1.367V92.214c-.587,1.879-2.756,8.981-2.733,11.157.029,2.738,1.672,6.742,3.412,10.982,1.682,4.1,3.421,8.339,3.421,10.87,0,2.075-1.156,6.156-2.494,10.882C-30.593,142.933-33,151.429-33,158.023a1.367,1.367,0,0,0,1.367,1.367H12.1a1.367,1.367,0,0,0,1.367-1.367c0-6.594-2.406-15.09-4.339-21.918-1.338-4.726-2.494-8.808-2.494-10.882,0-2.532,1.739-6.771,3.421-10.871C11.8,110.113,13.439,106.109,13.468,103.371ZM3.9,125.223c0,2.454,1.146,6.5,2.6,11.627,1.752,6.187,3.9,13.778,4.2,19.806H-30.23c.3-6.028,2.449-13.619,4.2-19.806,1.452-5.125,2.6-9.174,2.6-11.627,0-3.071-1.843-7.563-3.626-11.908-1.565-3.815-3.184-7.759-3.207-9.973-.015-1.415,1.63-7.2,2.67-10.509a1.365,1.365,0,0,0,.063-.409v-12.3H-24.8v6.833A15.033,15.033,0,0,0-9.766,101.99,15.033,15.033,0,0,0,5.268,86.957V80.123H8v12.3a1.368,1.368,0,0,0,.063.41c1.041,3.312,2.686,9.093,2.67,10.509-.024,2.214-1.642,6.159-3.207,9.973C5.744,117.66,3.9,122.152,3.9,125.223Z" transform="translate(32.999 -77.39)" fill="#bf3976"/>
</svg>
