<svg id="Grupo_61989" data-name="Grupo 61989" xmlns="http://www.w3.org/2000/svg" width="75.88" height="76" viewBox="0 0 75.88 76">
  <g id="Grupo_61878" data-name="Grupo 61878" transform="translate(0)">
    <g id="Grupo_61877" data-name="Grupo 61877">
      <path id="Trazado_116967" data-name="Trazado 116967" d="M591.145,113,569.117,97.885a2.632,2.632,0,0,0-3.655.68l-6.469,9.428.941.646-4.148,5.086V83.019H522.829V91l-6.424,16.743,5.928,46.217a5.792,5.792,0,0,0,5.587,5.062h30.057a4.409,4.409,0,0,0,3.626-1.912l22.713-31.737,1.039.713,6.469-9.428A2.632,2.632,0,0,0,591.145,113ZM525.082,85.272h28.451v4.807H525.082Zm26.5,71.494v-3.225h-2.253v3.225H527.92a3.507,3.507,0,0,1-3.352-3.1l-5.856-45.654,6.017-15.685h24.6v3.53h2.253v-3.53h1.953v62.26a4.384,4.384,0,0,0,.575,2.174Zm8.185-.962-.013.018a2.156,2.156,0,0,1-1.775.944,2.185,2.185,0,0,1-2.191-2.174v-37.3l6.012-7.372,1.686,1.157,18.974,13.02Zm30.2-40.424-5.195,7.57-4.067-2.79-18.58-12.749,5.195-7.57a.376.376,0,0,1,.522-.1l22.027,15.115A.376.376,0,0,1,589.967,115.38Z" transform="translate(-516.405 -83.019)" fill="#bf3976"/>
    </g>
  </g>
  <g id="Grupo_61880" data-name="Grupo 61880" transform="translate(28.693 4.009)">
    <g id="Grupo_61879" data-name="Grupo 61879">
      <rect id="Rectángulo_8801" data-name="Rectángulo 8801" width="2.505" height="2.505" fill="#bf3976"/>
    </g>
  </g>
  <g id="Grupo_61882" data-name="Grupo 61882" transform="translate(24.202 4.009)">
    <g id="Grupo_61881" data-name="Grupo 61881">
      <rect id="Rectángulo_8802" data-name="Rectángulo 8802" width="2.505" height="2.505" fill="#bf3976"/>
    </g>
  </g>
  <g id="Grupo_61884" data-name="Grupo 61884" transform="translate(33.184 4.009)">
    <g id="Grupo_61883" data-name="Grupo 61883">
      <rect id="Rectángulo_8803" data-name="Rectángulo 8803" width="2.505" height="2.505" fill="#bf3976"/>
    </g>
  </g>
  <g id="Grupo_61886" data-name="Grupo 61886" transform="translate(11.972 4.009)">
    <g id="Grupo_61885" data-name="Grupo 61885">
      <rect id="Rectángulo_8804" data-name="Rectángulo 8804" width="2.505" height="2.505" fill="#bf3976"/>
    </g>
  </g>
  <g id="Grupo_61888" data-name="Grupo 61888" transform="translate(15.221 4.009)">
    <g id="Grupo_61887" data-name="Grupo 61887">
      <rect id="Rectángulo_8805" data-name="Rectángulo 8805" width="2.505" height="2.505" fill="#bf3976"/>
    </g>
  </g>
  <g id="Grupo_61890" data-name="Grupo 61890" transform="translate(19.711 4.009)">
    <g id="Grupo_61889" data-name="Grupo 61889">
      <rect id="Rectángulo_8806" data-name="Rectángulo 8806" width="2.505" height="2.505" fill="#bf3976"/>
    </g>
  </g>
  <g id="Grupo_61892" data-name="Grupo 61892" transform="translate(11.638 18.155)">
    <g id="Grupo_61891" data-name="Grupo 61891">
      <path id="Trazado_116968" data-name="Trazado 116968" d="M586.914,210.52v12.944a9.6,9.6,0,1,0,19.208,0V210.52Zm16.7,12.944a7.1,7.1,0,1,1-14.2,0v-5.428h14.2v5.428Zm0-7.934h-14.2v-2.505h14.2v2.505Z" transform="translate(-586.914 -210.52)" fill="#bf3976"/>
    </g>
  </g>
  <g id="Grupo_61894" data-name="Grupo 61894" transform="translate(32.809 28.86)">
    <g id="Grupo_61893" data-name="Grupo 61893">
      <rect id="Rectángulo_8807" data-name="Rectángulo 8807" width="2.505" height="5.011" fill="#bf3976"/>
    </g>
  </g>
  <g id="Grupo_61896" data-name="Grupo 61896" transform="translate(32.809 49.442)">
    <g id="Grupo_61895" data-name="Grupo 61895">
      <rect id="Rectángulo_8808" data-name="Rectángulo 8808" width="2.505" height="5.011" fill="#bf3976"/>
    </g>
  </g>
  <g id="Grupo_61898" data-name="Grupo 61898" transform="translate(32.809 56.302)">
    <g id="Grupo_61897" data-name="Grupo 61897">
      <rect id="Rectángulo_8809" data-name="Rectángulo 8809" width="2.505" height="5.011" fill="#bf3976"/>
    </g>
  </g>
  <g id="Grupo_61900" data-name="Grupo 61900" transform="translate(32.809 62.225)">
    <g id="Grupo_61899" data-name="Grupo 61899">
      <rect id="Rectángulo_8810" data-name="Rectángulo 8810" width="2.505" height="5.011" fill="#bf3976"/>
    </g>
  </g>
  <g id="Grupo_61902" data-name="Grupo 61902" transform="translate(32.809 42.581)">
    <g id="Grupo_61901" data-name="Grupo 61901">
      <rect id="Rectángulo_8811" data-name="Rectángulo 8811" width="2.505" height="5.011" fill="#bf3976"/>
    </g>
  </g>
  <g id="Grupo_61904" data-name="Grupo 61904" transform="translate(32.809 15.138)">
    <g id="Grupo_61903" data-name="Grupo 61903">
      <rect id="Rectángulo_8812" data-name="Rectángulo 8812" width="2.505" height="5.011" fill="#bf3976"/>
    </g>
  </g>
  <g id="Grupo_61906" data-name="Grupo 61906" transform="translate(32.809 21.999)">
    <g id="Grupo_61905" data-name="Grupo 61905">
      <rect id="Rectángulo_8813" data-name="Rectángulo 8813" width="2.505" height="5.011" fill="#bf3976"/>
    </g>
  </g>
  <g id="Grupo_61908" data-name="Grupo 61908" transform="translate(32.809 35.72)">
    <g id="Grupo_61907" data-name="Grupo 61907">
      <rect id="Rectángulo_8814" data-name="Rectángulo 8814" width="2.505" height="5.011" fill="#bf3976"/>
    </g>
  </g>
</svg>
