<svg id="Grupo_61735" data-name="Grupo 61735" xmlns="http://www.w3.org/2000/svg" width="70.222" height="76.976" viewBox="0 0 70.222 76.976">
  <path id="Trazado_116871" data-name="Trazado 116871" d="M991.475,124.214a1.142,1.142,0,1,0,.13,1.461A1.149,1.149,0,0,0,991.475,124.214Z" transform="translate(-951.984 -105.354)" fill="#bf3976"/>
  <path id="Trazado_116872" data-name="Trazado 116872" d="M991.734,467.251a1.143,1.143,0,1,0-.445,1.4A1.152,1.152,0,0,0,991.734,467.251Z" transform="translate(-951.994 -396.411)" fill="#bf3976"/>
  <path id="Trazado_116873" data-name="Trazado 116873" d="M991.476,398.3a1.143,1.143,0,1,0,.143,1.443A1.153,1.153,0,0,0,991.476,398.3Z" transform="translate(-951.985 -338.155)" fill="#bf3976"/>
  <path id="Trazado_116874" data-name="Trazado 116874" d="M991.8,330.422a1.143,1.143,0,1,0-.658,1.269A1.151,1.151,0,0,0,991.8,330.422Z" transform="translate(-951.996 -280.013)" fill="#bf3976"/>
  <path id="Trazado_116875" data-name="Trazado 116875" d="M991.474,261.254a1.143,1.143,0,1,0,.13,1.462A1.149,1.149,0,0,0,991.474,261.254Z" transform="translate(-951.982 -221.752)" fill="#bf3976"/>
  <path id="Trazado_116876" data-name="Trazado 116876" d="M991.8,193.372a1.142,1.142,0,1,0-.71,1.289A1.152,1.152,0,0,0,991.8,193.372Z" transform="translate(-951.996 -163.606)" fill="#bf3976"/>
  <path id="Trazado_116877" data-name="Trazado 116877" d="M810.481,33.734a138.619,138.619,0,0,0-5.537-16.486,1.144,1.144,0,0,0-.241-.355c-4.381-4.383-10.56-7.216-13.2-8.3a4.333,4.333,0,0,0,.544-2.062c0-2.195-1.776-3.756-5.278-4.642a64.741,64.741,0,0,0-22.722,0c-3.5.885-5.278,2.447-5.278,4.641a4.33,4.33,0,0,0,.544,2.064c-.926.381-2.294.981-3.877,1.793a1.143,1.143,0,1,0,1.044,2.034c1.719-.882,3.192-1.508,4.052-1.853a31.892,31.892,0,0,0,2.889,3.358c2.182,2.249,4.328,4.043,4.419,4.118a1.142,1.142,0,0,0,1.536-.065l4.889-4.837V75.566A40,40,0,0,1,760.7,73.236a14.828,14.828,0,0,1-3.71-2.043V31.373s0-.009,0-.014a21.83,21.83,0,0,0-1.625-7.735,1.143,1.143,0,1,0-2.1.911,19.773,19.773,0,0,1,1.434,6.69l-1.286,4.648a14.126,14.126,0,0,1-8.583-9.156c1.5-4.566,2.73-7.584,3.055-8.363a29.875,29.875,0,0,1,4.724-3.706,1.143,1.143,0,0,0-1.24-1.921,31.816,31.816,0,0,0-5.259,4.166,1.134,1.134,0,0,0-.241.355,138.4,138.4,0,0,0-5.537,16.485,1.147,1.147,0,0,0,.054.758c2.088,4.807,7.888,9.024,12.413,9.024a1.144,1.144,0,0,0,1.1-.838l.8-2.888V71.708a1.145,1.145,0,0,0,.313.786c.208.219,5.258,5.369,20.387,5.37h.006a47.172,47.172,0,0,0,12.68-1.536,1.143,1.143,0,1,0-.62-2.2,43.57,43.57,0,0,1-10.921,1.439V13.148l4.888,4.836a1.144,1.144,0,0,0,1.536.065c.09-.075,2.236-1.869,4.418-4.119a31.835,31.835,0,0,0,2.889-3.357c2.2.883,8.389,3.609,12.644,7.781.325.78,1.555,3.8,3.055,8.363a14.126,14.126,0,0,1-8.583,9.157l-1.286-4.649a19.909,19.909,0,0,1,1.435-6.69,1.143,1.143,0,1,0-2.1-.911,21.834,21.834,0,0,0-1.625,7.734s0,.009,0,.014V71.192a12.5,12.5,0,0,1-2.269,1.4,1.143,1.143,0,1,0,1.015,2.049,11.893,11.893,0,0,0,3.228-2.147,1.141,1.141,0,0,0,.313-.786V39.791l.8,2.888a1.142,1.142,0,0,0,1.1.838c4.525,0,10.326-4.217,12.413-9.024a1.152,1.152,0,0,0,.094-.457A1.133,1.133,0,0,0,810.481,33.734Zm-58.527,7.434c-3.421-.478-7.579-3.672-9.3-7.23q.561-2.032,1.118-3.856a16.105,16.105,0,0,0,9.036,8ZM782.3,15.62l-4.34-4.294a11.359,11.359,0,0,0,6.993-3.952,1.143,1.143,0,1,0-1.8-1.41,9.909,9.909,0,0,1-7.738,3.3H775.4a9.918,9.918,0,0,1-7.741-3.3,1.143,1.143,0,1,0-1.8,1.411,11.374,11.374,0,0,0,6.994,3.951l-4.341,4.294c-3.33-2.9-7.458-7.245-7.458-9.085,0-1.01,1.4-3.36,14.352-3.36s14.352,2.35,14.352,3.36C789.762,8.373,785.633,12.719,782.3,15.62Zm16.563,25.548-.854-3.088a16.1,16.1,0,0,0,9.036-8q.553,1.82,1.118,3.856C806.445,37.5,802.288,40.691,798.866,41.168Z" transform="translate(-740.299 -0.889)" fill="#bf3976"/>
  <path id="Trazado_116878" data-name="Trazado 116878" d="M1032.335,190.286a1.142,1.142,0,0,0-1.143-1.143h-7.548a1.143,1.143,0,1,0,0,2.286h7.548A1.143,1.143,0,0,0,1032.335,190.286Z" transform="translate(-979.991 -160.785)" fill="#bf3976"/>
  <path id="Trazado_116879" data-name="Trazado 116879" d="M959.234,24.967h-3.32a1.143,1.143,0,1,0,0,2.287h3.32a1.143,1.143,0,0,0,0-2.287Z" transform="translate(-922.463 -21.34)" fill="#bf3976"/>
</svg>
